#!OML:ASF E:\Style4\Style4.ASF
:FULLY-SPECIFIED
:DEGREES
3045
root -0.380504 17.0213 -2.60926 10.2091 -3.01251 1.00752
lowerback 19.4141 1.55718 0.975477
upperback 9.66684 2.16567 0.457408
thorax -0.431635 1.09043 -0.483213
lowerneck -1.32376 2.74698 -1.48401
upperneck -10.5131 3.37557 -3.88717
head -3.08756 1.8825 -1.07953
rclavicle -5.1684e-015 -6.36111e-015
rhumerus 55.8965 6.11994 -15.4997
rradius 61.6464
rwrist -82.7337
rhand -8.53562 12.6842
rfingers 7.12502
rthumb 17.3934 -16.5575
lclavicle -5.1684e-015 -6.36111e-015
lhumerus 69.0719 -11.2182 23.5009
lradius 64.7218
lwrist 75.1424
lhand 1.4758 29.9513
lfingers 7.12502
lthumb 27.0032 58.0412
rfemur -42.0504 -2.63271 20.3096
rtibia 50.2488
rfoot -18.4723 -10.4581
rtoes -15.0199
lfemur -41.2575 5.33002 -18.4764
ltibia 49.5043
lfoot -17.9118 7.73726
ltoes -15.952
3046
root -0.400912 17.0195 -2.60712 10.1286 -2.71104 0.99299
lowerback 19.2273 1.63211 0.950973
upperback 9.82408 2.25878 0.52568
thorax -0.169889 1.13716 -0.406012
lowerneck -1.50923 2.91413 -1.48524
upperneck -10.4717 3.60082 -4.00554
head -3.03406 1.99772 -1.11755
rclavicle 2.0276e-014 -3.97569e-015
rhumerus 55.8934 5.9008 -15.3522
rradius 61.6566
rwrist -82.6979
rhand -8.35081 12.5392
rfingers 7.12502
rthumb 17.5713 -16.6868
lclavicle 2.0276e-014 -3.97569e-015
lhumerus 69.1052 -11.1015 23.7522
lradius 64.7756
lwrist 74.9509
lhand 1.85205 29.7798
lfingers 7.12502
lthumb 27.3631 57.8134
rfemur -41.9159 -2.75739 20.408
rtibia 50.319
rfoot -18.5627 -10.4501
rtoes -13.7643
lfemur -41.2146 5.2328 -18.3745
ltibia 49.5036
lfoot -17.8708 7.59311
ltoes -16.1301
3047
root -0.421709 17.0183 -2.60222 10.0534 -2.43532 0.995111
lowerback 19.3282 1.66548 1.00061
upperback 9.75469 2.31259 0.475771
thorax -0.290898 1.16685 -0.501368
lowerneck -1.51069 3.09263 -1.41016
upperneck -10.3259 3.84841 -4.01808
head -2.97853 2.11703 -1.13612
rclavicle 4.37326e-015 -3.97569e-016
rhumerus 55.8228 5.99933 -15.3611
rradius 61.6556
rwrist -82.7146
rhand -8.28133 12.5236
rfingers 7.12502
rthumb 17.6381 -16.6963
lclavicle 4.37326e-015 -3.97569e-016
lhumerus 68.9813 -11.2323 23.6848
lradius 64.8745
lwrist 74.9002
lhand 2.01176 29.6516
lfingers 7.12502
lthumb 27.5158 57.661
rfemur -41.7983 -2.84937 20.4772
rtibia 50.3805
rfoot -18.6437 -10.5115
rtoes -12.9968
lfemur -41.1484 5.18971 -18.3053
ltibia 49.4725
lfoot -17.8015 7.42907
ltoes -16.3338
3048
root -0.4441 17.0177 -2.59857 10.034 -2.14489 1.06554
lowerback 19.3342 1.71751 0.973986
upperback 9.72903 2.37685 0.426024
thorax -0.31953 1.1999 -0.551729
lowerneck -1.58278 3.22707 -1.36152
upperneck -10.242 4.03562 -4.03647
head -2.93242 2.20797 -1.15035
rclavicle 2.38542e-015 2.38542e-015
rhumerus 55.7436 5.99018 -15.3255
rradius 61.6583
rwrist -82.7074
rhand -8.2541 12.628
rfingers 7.12502
rthumb 17.6643 -16.5896
lclavicle 2.38542e-015 2.38542e-015
lhumerus 68.9551 -11.2788 23.6253
lradius 64.9749
lwrist 74.8547
lhand 2.1113 29.642
lfingers 7.12502
lthumb 27.611 57.6362
rfemur -41.7539 -2.98245 20.4933
rtibia 50.4254
rfoot -18.6416 -10.7586
rtoes -13.6983
lfemur -41.1437 5.1884 -18.3255
ltibia 49.4205
lfoot -17.6839 7.16889
ltoes -16.2242
3049
root -0.464866 17.0168 -2.59403 10.0284 -1.80014 1.08585
lowerback 19.3273 1.74281 1.0515
upperback 9.69318 2.42376 0.371481
thorax -0.347997 1.22807 -0.662394
lowerneck -1.64016 3.35106 -1.30849
upperneck -10.1778 4.21033 -4.02103
head -2.8965 2.29191 -1.15476
rclavicle 2.06736e-014 -8.34896e-015
rhumerus 55.635 5.97889 -15.3362
rradius 61.6952
rwrist -82.7105
rhand -8.1442 12.5527
rfingers 7.12502
rthumb 17.7701 -16.6554
lclavicle 2.06736e-014 -8.34896e-015
lhumerus 69.0014 -11.3163 23.5125
lradius 65.0819
lwrist 75.0162
lhand 2.08844 29.6063
lfingers 7.12502
lthumb 27.5892 57.604
rfemur -41.6949 -3.12955 20.5419
rtibia 50.4268
rfoot -18.773 -11.0376
rtoes -14.3637
lfemur -41.1486 5.1107 -18.2796
ltibia 49.3637
lfoot -17.5279 6.95544
ltoes -16.2256
3050
root -0.485013 17.0172 -2.58808 10.0128 -1.47705 1.10097
lowerback 19.1485 1.78665 1.16878
upperback 9.75274 2.49753 0.281878
thorax -0.182052 1.27391 -0.82921
lowerneck -1.62658 3.49044 -1.09382
upperneck -10.2226 4.39425 -4.11607
head -2.90443 2.38064 -1.22666
rclavicle -2.0276e-014 6.36111e-015
rhumerus 55.5511 5.8496 -15.4563
rradius 61.7116
rwrist -82.742
rhand -8.01217 12.5329
rfingers 7.12502
rthumb 17.8971 -16.6636
lclavicle -2.0276e-014 6.36111e-015
lhumerus 69.1391 -11.258 23.3272
lradius 65.2493
lwrist 75.366
lhand 1.71188 29.5705
lfingers 7.12502
lthumb 27.229 57.6252
rfemur -41.622 -3.28454 20.6007
rtibia 50.4166
rfoot -18.926 -11.2375
rtoes -14.6357
lfemur -41.1135 4.9752 -18.2191
ltibia 49.2816
lfoot -17.4139 6.73788
ltoes -15.7695
3051
root -0.503904 17.0209 -2.58042 9.97473 -1.18859 1.16356
lowerback 19.1349 1.84808 1.13551
upperback 9.72197 2.57318 0.245015
thorax -0.206367 1.31201 -0.863617
lowerneck -1.63201 3.64102 -0.959027
upperneck -10.1796 4.59288 -4.23605
head -2.8796 2.47866 -1.29061
rclavicle 1.51076e-014 -7.95139e-015
rhumerus 55.4979 5.88351 -15.3699
rradius 61.7836
rwrist -82.9559
rhand -7.95409 12.7142
rfingers 7.12502
rthumb 17.953 -16.4772
lclavicle 1.51076e-014 -7.95139e-015
lhumerus 69.072 -11.2905 23.2482
lradius 65.4131
lwrist 75.572
lhand 1.35137 29.5616
lfingers 7.12502
lthumb 26.8841 57.6699
rfemur -41.5161 -3.4568 20.6232
rtibia 50.4172
rfoot -18.8502 -11.4028
rtoes -14.9312
lfemur -41.036 4.83135 -18.2068
ltibia 49.1797
lfoot -17.337 6.56008
ltoes -15.2028
3052
root -0.525882 17.0253 -2.57396 9.9285 -0.887769 1.20925
lowerback 19.0989 1.92917 1.17948
upperback 9.72893 2.68598 0.197396
thorax -0.173333 1.37229 -0.957892
lowerneck -1.68307 3.7333 -0.852075
upperneck -10.1173 4.71589 -4.33161
head -2.84212 2.53844 -1.33871
rclavicle 7.55382e-015 -1.59028e-015
rhumerus 55.3757 5.84363 -15.3179
rradius 61.7812
rwrist -82.9536
rhand -7.81119 12.6516
rfingers 7.12502
rthumb 18.0905 -16.5271
lclavicle 7.55382e-015 -1.59028e-015
lhumerus 69.1127 -11.3303 23.2146
lradius 65.5704
lwrist 75.6276
lhand 1.28349 29.6527
lfingers 7.12502
lthumb 26.8191 57.7709
rfemur -41.4191 -3.58724 20.6578
rtibia 50.4385
rfoot -18.8445 -11.4661
rtoes -14.2184
lfemur -40.9582 4.69899 -18.1668
ltibia 49.0614
lfoot -17.2559 6.43324
ltoes -15.1424
3053
root -0.549818 17.0258 -2.56824 9.92217 -0.571485 1.24388
lowerback 19.1216 1.9942 1.19209
upperback 9.6791 2.77435 0.164708
thorax -0.23398 1.41777 -1.01794
lowerneck -1.78855 3.83603 -0.850795
upperneck -9.97826 4.86143 -4.34625
head -2.77253 2.60896 -1.33939
rclavicle -1.70955e-014 -3.18055e-015
rhumerus 55.3206 5.87961 -15.3275
rradius 61.7731
rwrist -82.8437
rhand -7.61244 12.5085
rfingers 7.12502
rthumb 18.2817 -16.6524
lclavicle -1.70955e-014 -3.18055e-015
lhumerus 69.0737 -11.391 23.1784
lradius 65.7064
lwrist 75.7282
lhand 1.26424 29.6561
lfingers 7.12502
lthumb 26.8007 57.7772
rfemur -41.3786 -3.7008 20.6996
rtibia 50.4898
rfoot -18.9663 -11.5422
rtoes -13.4573
lfemur -40.9405 4.5776 -18.1139
ltibia 48.9589
lfoot -17.1464 6.28074
ltoes -15.3016
3054
root -0.573349 17.0236 -2.56307 9.9343 -0.213182 1.33739
lowerback 19.0952 2.0306 1.14859
upperback 9.64303 2.81587 0.108867
thorax -0.257597 1.43917 -1.05993
lowerneck -1.8864 3.94525 -0.833523
upperneck -9.84831 5.01561 -4.35699
head -2.70714 2.6833 -1.34187
rclavicle -3.57812e-015 -5.96354e-015
rhumerus 55.3312 5.91649 -15.3262
rradius 61.776
rwrist -82.7323
rhand -7.58288 12.5545
rfingers 7.12502
rthumb 18.3102 -16.6037
lclavicle -3.57812e-015 -5.96354e-015
lhumerus 69.0125 -11.4175 23.092
lradius 65.8077
lwrist 75.7629
lhand 1.19451 29.6384
lfingers 7.12502
lthumb 26.734 57.7697
rfemur -41.3752 -3.87734 20.6957
rtibia 50.5734
rfoot -19.0294 -11.7286
rtoes -13.6015
lfemur -40.9571 4.40545 -18.1213
ltibia 48.8757
lfoot -16.9959 6.16544
ltoes -15.5237
3055
root -0.597782 17.0224 -2.55796 9.90958 0.159105 1.3445
lowerback 18.8715 2.08633 1.03799
upperback 9.75821 2.87197 0.17535
thorax -0.0277663 1.4652 -0.925842
lowerneck -1.93225 4.05155 -0.830011
upperneck -9.9202 5.15228 -4.46105
head -2.7178 2.75631 -1.37855
rclavicle 4.37326e-014 -1.70955e-014
rhumerus 55.4878 5.80451 -15.1315
rradius 61.8126
rwrist -82.7377
rhand -7.74179 12.656
rfingers 7.12502
rthumb 18.1573 -16.5165
lclavicle 4.37326e-014 -1.70955e-014
lhumerus 68.9059 -11.2705 23.1496
lradius 65.9149
lwrist 75.7743
lhand 1.16864 29.6772
lfingers 7.12502
lthumb 26.7092 57.8123
rfemur -41.2911 -4.01319 20.7801
rtibia 50.6572
rfoot -19.1378 -11.8808
rtoes -13.2488
lfemur -40.9487 4.24643 -18.025
ltibia 48.8242
lfoot -16.8779 6.0097
ltoes -15.658
3056
root -0.621426 17.0223 -2.55322 9.85523 0.526124 1.34377
lowerback 18.9533 2.12931 0.97584
upperback 9.70343 2.92193 0.205227
thorax -0.132242 1.48697 -0.873409
lowerneck -1.94318 4.14394 -0.719256
upperneck -9.82795 5.27307 -4.57655
head -2.67642 2.81494 -1.43324
rclavicle 5.80451e-014 -2.62396e-014
rhumerus 55.5665 5.8897 -15.0821
rradius 61.8523
rwrist -82.7417
rhand -7.88581 12.7026
rfingers 7.12502
rthumb 18.0187 -16.4827
lclavicle 5.80451e-014 -2.62396e-014
lhumerus 68.6991 -11.3208 23.1665
lradius 66.0284
lwrist 75.9027
lhand 1.26874 29.6931
lfingers 7.12502
lthumb 26.805 57.8136
rfemur -41.1582 -4.06173 20.8401
rtibia 50.7389
rfoot -19.3552 -11.9722
rtoes -12.1893
lfemur -40.9053 4.0901 -17.9279
ltibia 48.7863
lfoot -16.8017 5.85321
ltoes -15.777
3057
root -0.644627 17.0191 -2.54653 9.83548 0.873377 1.34209
lowerback 18.9676 2.18212 1.02198
upperback 9.65283 2.99974 0.168231
thorax -0.187674 1.52862 -0.954564
lowerneck -1.90928 4.19725 -0.599543
upperneck -9.7661 5.34472 -4.62005
head -2.65585 2.84746 -1.46775
rclavicle 2.5842e-014 -8.34896e-015
rhumerus 55.5482 5.96251 -15.1762
rradius 61.8712
rwrist -82.7957
rhand -7.83527 12.8763
rfingers 7.12502
rthumb 18.0673 -16.3046
lclavicle 2.5842e-014 -8.34896e-015
lhumerus 68.5944 -11.3932 23.0675
lradius 66.1985
lwrist 76.0662
lhand 1.08216 29.6189
lfingers 7.12502
lthumb 26.6265 57.7666
rfemur -41.1044 -4.05112 20.8984
rtibia 50.7907
rfoot -19.4498 -12.2916
rtoes -11.8935
lfemur -40.9045 3.96001 -17.8336
ltibia 48.7515
lfoot -16.7209 5.66325
ltoes -15.8506
